Coordinates
version=1
nRows=20
nColumns=33
inDegrees=yes

Units are S.I. units (second, meters, Newtons, ...)
Angles are in degrees.

endheader
time	ground_thorax_rot_x	ground_thorax_rot_y	ground_thorax_rot_z	ground_thorax_tx	ground_thorax_ty	ground_thorax_tz	clav_prot_r	clav_elev_r	scapula_abduction_r	scapula_elevation_r	scapula_upward_rot_r	scapula_winging_r	shoulder_elv_r	plane_of_elev_r	axial_rot_r	elbow_flexion_r	pro_sup_r	wrist_flex_r	wrist_dev_r	clav_prot_l	clav_elev_l	scapula_abduction_l	scapula_elevation_l	scapula_upward_rot_l	scapula_winging_l	shoulder_elv_l	plane_of_elev_l	axial_rot_l	elbow_flexion_l	pro_sup_l	wrist_flex_l	wrist_dev_l	
8.3000	-39.445988	-4.927758	-1.588775	-2.494125	807.894722	7.398242	3.329166	-45.000000	44.999997	-45.000000	-4.913292	-2966.218205	-2097.457566	28.969373	74.072112	369.943659	11.630132	17.012598	11.762060	14.523897	41.254983	-44.999999	-38.797945	-19.563331	2237.547580	-2814.413166	23.850733	-28.060171	2165.430921	19.545789	13.177886	-18.041641	
8.3100	-39.335850	-4.952141	-1.637998	-2.332729	807.360287	7.390579	3.434652	-45.000000	44.999995	-45.000000	-4.949107	-2966.190979	-2097.459963	28.927989	73.942374	369.817859	11.548577	17.048346	11.907529	14.335063	41.103765	-44.999999	-38.642087	-19.402202	2237.613691	-2814.434425	23.805107	-28.111448	2165.378966	19.799939	12.952432	-18.152671	
8.3200	-39.238704	-4.951625	-1.702556	-2.294756	806.836175	7.348727	3.587565	-45.000000	44.999990	-45.000000	-4.977918	-2966.176441	-2097.463497	28.892189	73.815832	369.677319	11.464201	17.100093	12.072336	14.121723	40.941143	-44.999997	-38.519875	-19.275131	2237.664340	-2814.443802	23.779560	-28.144637	2165.312002	20.039324	12.735533	-18.277773	
8.3300	-39.159350	-4.953241	-1.756801	-2.526611	806.348385	7.233127	3.655043	-45.000000	44.999983	-45.000000	-5.018539	-2966.213815	-2097.477128	28.861766	73.730023	369.549408	11.363683	17.109771	12.163035	13.995389	40.867278	-44.999995	-38.436181	-19.185729	2237.748609	-2814.457295	23.774609	-28.085258	2165.250839	20.252876	12.597877	-18.368258	
8.3400	-39.096420	-4.959126	-1.797363	-3.042127	805.887234	7.042307	3.682079	-45.000000	44.999969	-45.000000	-5.089652	-2966.279749	-2097.477019	28.829294	73.689512	369.434883	11.255640	17.094148	12.213436	13.919698	40.839432	-44.999991	-38.392006	-19.139179	2237.852285	-2814.477250	23.778773	-27.946421	2165.181470	20.428233	12.516616	-18.431880	
8.3500	-39.053343	-4.959527	-1.826304	-3.873074	805.448909	6.771741	3.697905	-45.000000	44.999945	-45.000000	-5.186463	-2966.390442	-2097.473373	28.802898	73.695361	369.326898	11.145148	17.070315	12.233539	13.887182	40.850632	-44.999985	-38.403962	-19.164792	2237.963654	-2814.496091	23.798627	-27.747187	2165.115032	20.552237	12.487210	-18.485508	
8.3600	-39.026360	-4.970893	-1.831632	-5.014761	805.023854	6.429184	3.704811	-45.000000	44.999901	-45.000000	-5.332898	-2966.526139	-2097.448958	28.772780	73.761229	369.236990	11.044128	17.035926	12.228238	13.892971	40.886708	-44.999972	-38.458025	-19.254291	2238.088313	-2814.520089	23.817990	-27.496497	2165.047104	20.612167	12.492218	-18.520179	
8.3700	-39.012795	-4.976813	-1.822217	-6.446689	804.603453	6.028378	3.743860	-45.000000	44.999823	-45.000000	-5.507197	-2966.706126	-2097.420853	28.751139	73.878727	369.151099	10.965400	17.015677	12.214896	13.915639	40.932524	-44.999951	-38.551897	-19.425889	2238.210939	-2814.534466	23.848443	-27.237621	2164.980974	20.603706	12.511441	-18.559058	
8.3800	-39.007342	-5.003538	-1.783659	-8.150497	804.184706	5.583229	3.788172	-45.000000	44.999683	-45.000000	-5.732350	-2966.906260	-2097.372603	28.720528	74.070073	369.086667	10.923594	16.991848	12.177959	13.964075	40.983933	-44.999912	-38.658466	-19.653395	2238.350364	-2814.542528	23.865220	-26.983344	2164.919634	20.530049	12.534072	-18.582191	
8.3900	-39.006884	-5.032377	-1.729911	-10.111166	803.768413	5.106076	3.859065	-45.000000	44.999432	-45.000000	-5.980656	-2967.148774	-2097.325566	28.694719	74.323430	369.026594	10.930904	16.978962	12.122546	14.029146	41.054657	-44.999841	-38.776693	-19.950409	2238.495685	-2814.532516	23.887711	-26.773665	2164.864208	20.406079	12.543243	-18.606001	
8.4000	-39.006885	-5.085297	-1.652790	-12.318037	803.357399	4.606737	3.936815	-45.000000	44.998983	-45.000000	-6.273090	-2967.405008	-2097.261515	28.656987	74.648217	368.986660	11.001114	16.963497	12.039974	14.114734	41.126780	-44.999716	-38.884231	-20.290905	2238.659151	-2814.501796	23.886687	-26.619469	2164.826071	20.252436	12.536609	-18.619012	
8.4100	-39.018024	-5.151433	-1.557755	-14.765420	802.954902	4.091966	4.041863	-45.000000	44.998179	-45.000000	-6.607902	-2967.684521	-2097.202948	28.613193	75.024016	368.960000	11.146704	16.959491	11.940604	14.218138	41.219669	-44.999491	-39.012812	-20.704931	2238.817702	-2814.455922	23.876143	-26.552606	2164.805074	20.094822	12.498463	-18.634193	
8.4200	-39.041543	-5.255143	-1.428556	-17.451862	802.563519	3.565919	4.171277	-45.000000	44.996737	-45.000000	-7.024788	-2967.959583	-2097.134035	28.548875	75.439750	368.961337	11.381596	16.958381	11.821795	14.350672	41.318418	-44.999089	-39.164319	-21.197387	2238.971367	-2814.397698	23.830166	-26.578054	2164.820889	19.955133	12.428963	-18.645495	
8.4300	-39.078114	-5.388669	-1.263702	-20.379957	802.184591	3.030745	4.341454	-45.000000	44.994156	-45.000000	-7.525661	-2968.254030	-2097.072128	28.482244	75.864982	368.980353	11.718718	16.968405	11.688866	14.516273	41.443575	-44.998368	-39.354752	-21.803776	2239.108475	-2814.337384	23.775707	-26.708271	2164.862953	19.853527	12.314384	-18.658825	
8.4400	-39.121121	-5.572566	-1.044465	-23.554104	801.818309	2.487768	4.555694	-45.000000	44.989529	-45.000000	-8.148232	-2968.572529	-2097.011496	28.426126	76.296366	369.020086	12.174290	16.984161	11.541738	14.733168	41.546249	-44.997077	-39.564649	-22.535405	2239.242136	-2814.272241	23.709312	-26.913913	2164.936385	19.799160	12.160148	-18.669928	
8.4500	-39.172962	-5.797427	-0.774239	-26.979603	801.464038	1.937842	4.811194	-45.000000	44.981253	-45.000000	-8.887228	-2968.928841	-2096.965297	28.391105	76.734358	369.074332	12.757526	17.009041	11.385824	14.994523	41.624943	-44.994762	-39.796565	-23.386618	2239.373393	-2814.215062	23.651835	-27.178895	2165.013517	19.801618	11.970762	-18.677772	
8.4600	-39.222879	-6.061958	-0.459769	-30.660060	801.121068	1.381801	5.095535	-45.000000	44.966389	-45.000000	-9.732117	-2969.315414	-2096.921437	28.377013	77.188765	369.141602	13.466752	17.040396	11.223407	15.287773	41.647352	-44.990622	-40.022689	-24.320392	2239.515532	-2814.159989	23.591807	-27.484219	2165.099654	19.863143	11.766533	-18.683820	
8.4700	-39.266880	-6.344878	-0.122007	-34.596942	800.789241	0.820048	5.389089	-45.000000	44.939877	-45.000000	-10.636588	-2969.731855	-2096.880494	28.377276	77.668423	369.216728	14.287546	17.078820	11.056387	15.582639	41.631750	-44.983191	-40.231695	-25.294485	2239.673216	-2814.110058	23.535545	-27.829714	2165.178467	19.985206	11.560421	-18.688734	
8.4800	-39.304013	-6.640814	0.232410	-38.787577	800.469688	0.252530	5.676556	-45.000000	44.892070	-45.000000	-11.591051	-2970.162166	-2096.836604	28.381296	78.188583	369.299552	15.201263	17.123363	10.893770	15.862178	41.566993	-44.969917	-40.419332	-26.286650	2239.846843	-2814.061985	23.472723	-28.208000	2165.261870	20.159193	11.356652	-18.692639	
8.4900	-39.347495	-6.943999	0.603109	-43.225500	800.165219	-0.321703	5.952593	-45.000000	44.807315	-45.000000	-12.595325	-2970.586237	-2096.793635	28.370111	78.745107	369.393295	16.189957	17.176411	10.736479	16.113410	41.489028	-44.946036	-40.613995	-27.301601	2240.015536	-2814.016298	23.404407	-28.608188	2165.344757	20.374537	11.169065	-18.698842	
